<svg xmlns="http://www.w3.org/2000/svg" viewBox="0 0 41.95 41.88"><defs><style>.cls-1{fill:#2e3192;}.cls-2{fill:#8cc63f;}.cls-3{fill:#93278f;}.cls-4{fill:#754c24;}</style></defs><title>nucleotides</title><g id="Layer_2" data-name="Layer 2"><g id="dna"><g id="nucleotides"><rect id="rightTop" class="cls-1" x="37.54" y="12" width="4.42" height="8.02" transform="translate(79.49 32.02) rotate(180)"/><rect id="rightBottom" class="cls-2" x="37.54" y="22" width="4.42" height="8.02" transform="translate(79.49 52.02) rotate(180)"/><rect id="midRightTop" class="cls-3" x="27.64" y="6.13" width="4.42" height="13.7" transform="translate(59.7 25.95) rotate(180)"/><rect id="midRightBottom" class="cls-4" x="27.64" y="21.8" width="4.42" height="14.33" transform="translate(59.7 57.92) rotate(180)"/><rect id="midTop" class="cls-4" x="18.23" width="4.42" height="19.82" transform="translate(40.88 19.82) rotate(180)"/><rect id="midBottom" class="cls-3" x="18.23" y="21.8" width="4.42" height="20.08" transform="translate(40.88 63.67) rotate(180)"/><rect id="midLeftTop" class="cls-2" x="8.65" y="6.25" width="4.42" height="13.7" transform="translate(21.71 26.2) rotate(180)"/><rect id="midLeftBottom" class="cls-1" x="8.65" y="21.92" width="4.42" height="14.33" transform="translate(21.71 58.17) rotate(180)"/><rect id="leftTop" class="cls-3" y="12" width="4.42" height="8.02" transform="translate(4.42 32.02) rotate(180)"/><rect id="leftBottom" class="cls-4" y="22" width="4.42" height="8.02" transform="translate(4.42 52.02) rotate(180)"/></g></g></g></svg>