<svg xmlns="http://www.w3.org/2000/svg" viewBox="0 0 144 54.12"><defs><style>.cls-1{fill:#333;}</style></defs><title>dna</title><g id="Layer_2" data-name="Layer 2"><g id="dna"><g id="dna-2" data-name="dna"><g id="helix-border"><path class="cls-1" d="M72,49.36c7.19-.49,11.49-5.3,36-25.36C133.16,3.41,137.55.37,144,0V4.75c-6.93.48-11.34,5.47-36.12,25.5S78.69,53.68,72,54.12Z"/><path class="cls-1" d="M72,4.75c7.19.49,11.49,5.31,36,25.37,25.16,20.59,29.55,23.62,36,24V49.38c-6.93-.48-11.34-5.48-36.12-25.51S78.69.44,72,0Z"/></g><g id="nucleotides"><rect class="cls-1" x="51.92" y="18.25" width="4.13" height="8.02"/><rect class="cls-1" x="51.92" y="28.25" width="4.13" height="8.02"/><rect class="cls-1" x="61.16" y="12.38" width="4.13" height="13.7"/><rect class="cls-1" x="61.16" y="28.05" width="4.13" height="14.33"/><rect class="cls-1" x="69.94" y="6.25" width="4.13" height="19.82"/><rect class="cls-1" x="69.94" y="28.05" width="4.13" height="20.08"/><rect class="cls-1" x="78.89" y="12.5" width="4.13" height="13.7"/><rect class="cls-1" x="78.89" y="28.17" width="4.13" height="14.33"/><rect class="cls-1" x="86.96" y="18.25" width="4.13" height="8.02"/><rect class="cls-1" x="86.96" y="28.25" width="4.13" height="8.02"/></g><g id="helix-border-2" data-name="helix-border"><path class="cls-1" d="M0,49.36c7.19-.49,11.49-5.3,36-25.36C61.16,3.41,65.55.37,72,0V4.75c-6.93.48-11.34,5.47-36.12,25.5S6.69,53.68,0,54.12Z"/><path class="cls-1" d="M0,4.75c7.19.49,11.49,5.31,36,25.37,25.16,20.59,29.55,23.62,36,24V49.38c-6.93-.48-11.34-5.48-36.12-25.51S6.69.44,0,0Z"/></g></g></g></g></svg>