<svg xmlns="http://www.w3.org/2000/svg" viewBox="0 0 347.08 320.39"><defs><style>.cls-1{fill:#dcf2fd;}.cls-2{fill:#a7dde7;}.cls-3{fill:#d3b952;}.cls-4{fill:#7ca5ad;}.cls-5{fill:#b2bbb5;}.cls-6{fill:#b09b35;}.cls-7,.cls-8{fill:none;}.cls-10,.cls-11,.cls-7,.cls-8,.cls-9{stroke:#231f20;stroke-miterlimit:10;}.cls-8{stroke-width:0.75px;}.cls-9{fill:#603913;}.cls-10{fill:#754c29;}.cls-11{fill:#8b5e3c;}</style></defs><g id="Layer_1_copy_3" data-name="Layer 1 copy 3"><path class="cls-1" d="M372.2,348.09C373.69,351.45,416.68,480,416.68,480s1.25,2.71-2,5.56c-2.34,2-3.41-.31-3.88-2.2a47.22,47.22,0,0,0-1.43-4.8C402.94,461,370.89,370.94,360,352.2c0,0-1.89-7.56,3.36-9.33S370.7,344.74,372.2,348.09Z" transform="translate(-165.75 -182.18)"/><path class="cls-1" d="M360.65,325.31a12.76,12.76,0,0,1,.27,8.12c-1,2.95-3.24,5.43-8.55,1.86-8.76-5.87-23.63-29-45.28-31.83a5.77,5.77,0,0,1-4.85-7.33C304.13,279.14,343.19,275.15,360.65,325.31Z" transform="translate(-165.75 -182.18)"/><path class="cls-2" d="M271.52,196a8.88,8.88,0,0,1-2.23,2.32l-1.75-5.18c2.28-1.66,2.47-1.61,2.47-1.61S272.29,194.73,271.52,196Z" transform="translate(-165.75 -182.18)"/><path class="cls-3" d="M265.61,183.17a1.21,1.21,0,0,1,.63.91l1.21,8.36a1.27,1.27,0,0,1-.16.79,1.13,1.13,0,0,1-.32.37,75.42,75.42,0,0,1-43.27,14.89l-.18,0c-.31,0-1,.09-1.71.14l-4.23-8.15a1.2,1.2,0,0,1,0-1.12h0l.7-.64h0a1.18,1.18,0,0,1,.27-.06c22.14-2.5,40.52-12.38,45.87-15.49a.67.67,0,0,1,.23-.1l1,.08Z" transform="translate(-165.75 -182.18)"/><path class="cls-3" d="M264.63,183.09a.67.67,0,0,0-.23.1c-5.35,3.11-23.73,13-45.87,15.49a1.18,1.18,0,0,0-.27.06c4.24-3.84,11-9.9,21.78-13.44C250.35,181.91,259,182.61,264.63,183.09Z" transform="translate(-165.75 -182.18)"/><path class="cls-4" d="M267,193.6a1.13,1.13,0,0,0,.32-.37l.25-.07,1.75,5.18c-2.51,1.61-4.9,3-7.13,4.24a86.43,86.43,0,0,1-14.58,6.5c-13.88,4.75-21.06,4.19-23.78,4.6l-1.23-3.56a1.24,1.24,0,0,1,1-1.61l.18,0A75.42,75.42,0,0,0,267,193.6Z" transform="translate(-165.75 -182.18)"/><path class="cls-1" d="M274.62,223.29l15.89,47.09s1.27,4-2,5.07-5.27-2.6-5.27-2.6l-14.88-44.13a30.92,30.92,0,0,0,6.23-5.37S274.6,223.31,274.62,223.29Z" transform="translate(-165.75 -182.18)"/><path class="cls-5" d="M269.06,206.78l5.56,16.51s0,.05-.06.06c-.68.71-1.47,1.47-2.34,2.25l-.58.5-1,.84-.24.2c-.32.24-.61.48-.87.68s-.7.53-.91.69l-.11.07a.82.82,0,0,1-.17.13h0l-6.21-18.44s-1.43-4.24,1.15-5.7a3.1,3.1,0,0,1,.87-.34A4,4,0,0,1,269.06,206.78Z" transform="translate(-165.75 -182.18)"/><path class="cls-4" d="M269.06,206.78a4,4,0,0,0-4.93-2.55,3.1,3.1,0,0,0-.87.34l-1.1-2c2.23-1.22,4.62-2.63,7.13-4.24l7.58,22.46c-.58.68-1.32,1.54-2.25,2.49Z" transform="translate(-165.75 -182.18)"/><path class="cls-6" d="M347.61,444.09c-.61,4.51-3,5.64-6.34,8.83s-10.84,3.75-11.17,3.77c-1.25-1.69-2.52-3.41-3.86-5.14C291.7,406,231.65,345.39,231.65,345.39c10.09,1,21.42-12.34,21.42-12.34s7.11-8.59,5.11-13.66C286,361.11,318.15,405.14,347.61,444.09Z" transform="translate(-165.75 -182.18)"/><path class="cls-4" d="M262.16,202.58l1.1,2c-2.58,1.46-1.15,5.7-1.15,5.7l6.21,18.44a45.74,45.74,0,0,1-11.6,6,46.35,46.35,0,0,1-25.19,1.44l-7.73-22.51c2.72-.41,9.9.15,23.78-4.6A86.43,86.43,0,0,0,262.16,202.58Z" transform="translate(-165.75 -182.18)"/><path class="cls-6" d="M330.1,456.69c.33,0,7.93-.64,11.17-3.77s5.73-4.32,6.34-8.83c13.73,18.16,26.89,35.21,38.77,50.41q-9.47,0-18.92,0c-3.54,0-7.09,0-10.64-.08-8.88-12.72-17.57-25-25.16-35.54-.18-.24-.34-.47-.51-.71l0,0L331,458C330.73,457.55,330.42,457.12,330.1,456.69Z" transform="translate(-165.75 -182.18)"/><path class="cls-2" d="M284.45,493.79a17.46,17.46,0,0,0-5.13.76,21.92,21.92,0,0,0-5.64-1q-6.46-.35-12.9-.4L220,372.3s-17.38-49.31,31.44-78l-19.95-58.13a46.35,46.35,0,0,0,25.19-1.44,45.74,45.74,0,0,0,11.6-6h0l14.88,44.13s2,3.64,5.27,2.6,2-5.07,2-5.07l-15.89-47.09c.93-.95,1.67-1.81,2.25-2.49l19.74,58.53c54.94-5.87,71.44,43.05,71.44,43.05l57.31,169.89a19.34,19.34,0,0,0-6.21,2.06c-3.38,0-6.78,0-10.16,0q-11.31.12-22.61.14c-11.88-15.2-25-32.25-38.77-50.41-29.46-38.95-61.6-83-89.43-124.7v0a4.54,4.54,0,0,0-1.06-1.58c-4.79-4.6-16.48,8-16.48,8s-6.34,6.19-9.78,11.61v0c-2.52,4-3.46,7.55.8,8,0,0,60,60.62,94.59,106.16a26.8,26.8,0,0,0,.24,4.41c-5.37-1.93-15.4,1.44-16.62,3.9-1.59,3.22,5.48,2.9,8.62,1.71,0,0,5.89-2.12,8.27-4.32a4.19,4.19,0,0,0,.81,1.66c-.2.2-.41.39-.61.6-4,3.94-10.29,11.49-8.62,18.94,2.4,10.75,12.88-11.29,11.39-19a1.55,1.55,0,0,0-.05-.23,5.24,5.24,0,0,0,1.48-1.13c.17.24.33.47.51.71,7.59,10.52,16.28,22.82,25.16,35.54C332.7,494.18,308.57,493.8,284.45,493.79ZM416.68,480s-43-128.5-44.48-131.86-3.58-7-8.83-5.22S360,352.2,360,352.2c10.88,18.74,42.93,108.84,49.35,126.31a47.22,47.22,0,0,1,1.43,4.8c.47,1.89,1.54,4.23,3.88,2.2C417.93,482.66,416.68,480,416.68,480ZM360.92,333.43a12.76,12.76,0,0,0-.27-8.12c-17.46-50.16-56.52-46.17-58.41-29.18a5.77,5.77,0,0,0,4.85,7.33c21.65,2.82,36.52,26,45.28,31.83C357.68,338.86,360,336.38,360.92,333.43Z" transform="translate(-165.75 -182.18)"/><path class="cls-2" d="M329.67,459.26a1.55,1.55,0,0,1,.05.23c1.49,7.67-9,29.71-11.39,19-1.67-7.45,4.58-15,8.62-18.94.2-.21.41-.4.61-.6A1.65,1.65,0,0,0,329.67,459.26Z" transform="translate(-165.75 -182.18)"/><path class="cls-2" d="M326.48,456a13.07,13.07,0,0,0,.27,1.29c-2.38,2.2-8.27,4.32-8.27,4.32-3.14,1.19-10.21,1.51-8.62-1.71C311.08,457.4,321.11,454,326.48,456Z" transform="translate(-165.75 -182.18)"/><path class="cls-2" d="M223.78,213.69c-2.7.42-3.87-.64-3.87-.64s-1.69-4.55-.5-4.38a13.87,13.87,0,0,0,2.4,0l.76,1.47,1.23,3.56Z" transform="translate(-165.75 -182.18)"/><path class="cls-6" d="M230.86,337.4c3.44-5.42,9.78-11.61,9.78-11.61s11.69-12.6,16.48-8l1.06,1.58v0c2,5.07-5.11,13.66-5.11,13.66s-11.33,13.32-21.42,12.34c-4.26-.42-3.32-4-.8-8Zm15.8-2.35L245,333.48s4.74-3.79-1.56-2.12-9.1,8.57-5.08,8.43C240.41,339.72,243.68,338,246.66,335.05Z" transform="translate(-165.75 -182.18)"/><path class="cls-6" d="M245,333.48l1.64,1.57c-3,2.9-6.25,4.67-8.28,4.74-4,.14-1.21-6.77,5.08-8.43S245,333.48,245,333.48Z" transform="translate(-165.75 -182.18)"/><path class="cls-7" d="M425.36,492.27,368.05,322.38s-16.5-48.92-71.44-43.05" transform="translate(-165.75 -182.18)"/><path class="cls-7" d="M251.48,294.32C202.66,323,220,372.3,220,372.3l40.74,120.81" transform="translate(-165.75 -182.18)"/><polyline class="cls-7" points="131.13 97.95 130.86 97.15 111.12 38.62 103.54 16.16 101.8 10.98"/><path class="cls-7" d="M217.54,199.38a1.2,1.2,0,0,0,0,1.12l4.23,8.15.76,1.47" transform="translate(-165.75 -182.18)"/><path class="cls-7" d="M218.25,198.74a1.2,1.2,0,0,0-.7.64" transform="translate(-165.75 -182.18)"/><path class="cls-7" d="M265.6,183.17a1.17,1.17,0,0,0-1-.08.67.67,0,0,0-.23.1c-5.35,3.11-23.73,13-45.87,15.49a1.18,1.18,0,0,0-.27.06" transform="translate(-165.75 -182.18)"/><path class="cls-7" d="M223.7,208.49A75.42,75.42,0,0,0,267,193.6a1.13,1.13,0,0,0,.32-.37,1.27,1.27,0,0,0,.16-.79l-1.21-8.36a1.21,1.21,0,0,0-.63-.91" transform="translate(-165.75 -182.18)"/><path class="cls-7" d="M251.48,294.32l-19.95-58.13-7.73-22.51-1.23-3.56a1.24,1.24,0,0,1,1-1.61" transform="translate(-165.75 -182.18)"/><path class="cls-7" d="M217.54,199.38h0l.7-.64h0c4.24-3.84,11-9.9,21.78-13.44,10.31-3.39,19-2.69,24.59-2.21l1,.08h0" transform="translate(-165.75 -182.18)"/><path class="cls-7" d="M274.62,223.29c.93-.95,1.67-1.81,2.25-2.49" transform="translate(-165.75 -182.18)"/><path class="cls-7" d="M272.22,225.6c.87-.78,1.66-1.54,2.34-2.25" transform="translate(-165.75 -182.18)"/><path class="cls-7" d="M270.63,226.94c.35-.27.69-.55,1-.84" transform="translate(-165.75 -182.18)"/><path class="cls-7" d="M269.52,227.82c.31-.22.6-.45.87-.68" transform="translate(-165.75 -182.18)"/><path class="cls-7" d="M268.5,228.58l.11-.07" transform="translate(-165.75 -182.18)"/><path class="cls-7" d="M231.36,236.15l.17,0a46.35,46.35,0,0,0,25.19-1.44,45.74,45.74,0,0,0,11.6-6h0" transform="translate(-165.75 -182.18)"/><path class="cls-7" d="M230.86,337.4c3.44-5.42,9.78-11.61,9.78-11.61s11.69-12.6,16.48-8a4.54,4.54,0,0,1,1.06,1.58" transform="translate(-165.75 -182.18)"/><path class="cls-7" d="M258.18,319.39c2,5.07-5.11,13.66-5.11,13.66s-11.33,13.32-21.42,12.34c-4.26-.42-3.32-4-.8-8" transform="translate(-165.75 -182.18)"/><path class="cls-7" d="M386.38,494.5c-11.88-15.2-25-32.25-38.77-50.41-29.46-38.95-61.6-83-89.43-124.7v0l-1.06-1.58" transform="translate(-165.75 -182.18)"/><path class="cls-7" d="M231.65,345.39s60,60.62,94.59,106.16c1.34,1.73,2.61,3.45,3.86,5.14.32.43.63.86.93,1.28l.08.12,0,0c.17.24.33.47.51.71,7.59,10.52,16.28,22.82,25.16,35.54" transform="translate(-165.75 -182.18)"/><path class="cls-7" d="M230.85,337.42v0c.57-.52,24.22-22.31,22.31-13.48a22.79,22.79,0,0,1-6.51,11.13c-3,2.9-6.25,4.67-8.28,4.74-4,.14-1.21-6.77,5.08-8.43s1.56,2.12,1.56,2.12" transform="translate(-165.75 -182.18)"/><path class="cls-8" d="M347.61,444.09c-.61,4.51-3,5.64-6.34,8.83s-10.84,3.75-11.17,3.77h0l0,0c-.13.1-.52.42-1.12.94l-1.37,1.24c-.2.2-.41.39-.61.6-4,3.94-10.29,11.49-8.62,18.94,2.4,10.75,12.88-11.29,11.39-19a1.55,1.55,0,0,0-.05-.23,4.17,4.17,0,0,0-.74-1.59,4.43,4.43,0,0,0-1.45-1.26,5.65,5.65,0,0,0-1-.45c-5.37-1.93-15.4,1.44-16.62,3.9-1.59,3.22,5.48,2.9,8.62,1.71,0,0,5.89-2.12,8.27-4.32a4.17,4.17,0,0,0,.73-.84,1.45,1.45,0,0,0,.24-1.06c-.4-1.74,1.18,0,2.33,1.38.43.52.79,1,1,1.24,0,0,.06.1.08.12l0,0a5.24,5.24,0,0,1-1.48,1.13,1.65,1.65,0,0,1-2.11-.35,4.19,4.19,0,0,1-.81-1.66,13.07,13.07,0,0,1-.27-1.29,26.8,26.8,0,0,1-.24-4.41" transform="translate(-165.75 -182.18)"/><path class="cls-8" d="M302.24,296.13c1.89-17,40.95-21,58.41,29.18a12.76,12.76,0,0,1,.27,8.12c-1,2.95-3.24,5.43-8.55,1.86-8.76-5.87-23.63-29-45.28-31.83A5.77,5.77,0,0,1,302.24,296.13Z" transform="translate(-165.75 -182.18)"/><path class="cls-8" d="M360,352.2s-1.89-7.56,3.36-9.33,7.33,1.87,8.83,5.22S416.68,480,416.68,480s1.25,2.71-2,5.56c-2.34,2-3.41-.31-3.88-2.2a47.22,47.22,0,0,0-1.43-4.8C402.94,461,370.89,370.94,360,352.2Z" transform="translate(-165.75 -182.18)"/><path class="cls-8" d="M274.56,223.35a30.92,30.92,0,0,1-6.23,5.37l14.88,44.13s2,3.64,5.27,2.6,2-5.07,2-5.07l-15.89-47.09" transform="translate(-165.75 -182.18)"/><path class="cls-8" d="M274.62,223.29l-5.56-16.51a4,4,0,0,0-4.93-2.55,3.1,3.1,0,0,0-.87.34c-2.58,1.46-1.15,5.7-1.15,5.7l6.21,18.44h0a.82.82,0,0,0,.17-.13l.11-.07c.21-.16.53-.39.91-.69s.55-.44.87-.68l.24-.2,1-.84.58-.5a28,28,0,0,0,2.34-2.25S274.6,223.31,274.62,223.29Z" transform="translate(-165.75 -182.18)"/><path class="cls-8" d="M223.7,208.49l-.18,0c-.31,0-1,.09-1.71.14a13.87,13.87,0,0,1-2.4,0c-1.19-.17.5,4.38.5,4.38s1.17,1.06,3.87.64h0c2.72-.41,9.9.15,23.78-4.6a86.43,86.43,0,0,0,14.58-6.5c2.23-1.22,4.62-2.63,7.13-4.24a8.88,8.88,0,0,0,2.23-2.32c.77-1.29-1.51-4.47-1.51-4.47s-.19-.05-2.47,1.61" transform="translate(-165.75 -182.18)"/></g><g id="Layer_3" data-name="Layer 3"><path class="cls-9" d="M221.74,477.46s98.26-37.89,264.28,0c10.17,4.94,29.4,24.43-6.78,24.33s-247,0-247,0S174.3,506.49,221.74,477.46Z" transform="translate(-165.75 -182.18)"/><path class="cls-10" d="M182.74,490.05s-34.73-2-3.39-23.43,123.74,0,123.74,0,33.59,20-4,23.43S182.74,490.05,182.74,490.05Z" transform="translate(-165.75 -182.18)"/><path class="cls-11" d="M391.85,480.42s-37.27-3.57,11-26.44,100.8,5.31,100.8,5.31,19.48,15,0,17.56S391.85,480.42,391.85,480.42Z" transform="translate(-165.75 -182.18)"/></g></svg>