<svg xmlns="http://www.w3.org/2000/svg" viewBox="0 0 290.71 730.75"><defs><style>.cls-1{fill:#a7dde7;}.cls-2{fill:#7ca5ad;}.cls-3{fill:#dcf2fd;}.cls-4{fill:#b09b35;}.cls-5{fill:#d3b952;}.cls-6{fill:#b2bbb5;}.cls-7,.cls-8{fill:none;stroke:#231f20;stroke-miterlimit:10;}.cls-8{stroke-width:0.75px;}.cls-9{fill:#f15a29;}</style></defs><g id="Layer_1_copy_2" data-name="Layer 1 copy 2"><path class="cls-1" d="M335.4,421.38c53.94,12,53.94,63.62,53.94,63.62V747.28a9.92,9.92,0,0,1-.73,3.73c0-.1-5.12-1.82-15.16-3.87,8.76-5.62,7.9-11.47,7.9-11.47S357.53,673,331.07,593.8c-15.47-46.33-31.85-98.32-44.88-146.75a4.49,4.49,0,0,0-.5-1.85c-3.07-5.89-18.17,2.31-18.17,2.31s-8,3.84-13,7.88h0c-3.66,3-5.7,6.05-1.79,7.81,0,0,37.52,76.63,55.7,130.82a26.3,26.3,0,0,0-1.19,4.26c-4.47-3.55-15.05-3.56-17-1.62-2.54,2.54,4.27,4.5,7.62,4.38,0,0,6.26-.13,9.22-1.45a4.23,4.23,0,0,0,.23,1.83l-.77.37c-5.08,2.45-13.42,7.6-14.22,15.19-1.16,11,15.82-6.58,16.86-14.32a1.94,1.94,0,0,0,0-.24,5.18,5.18,0,0,0,1.76-.59l.26.83c14.13,45.72,34.55,119,40.62,140.91-11-1.42-24.32-2.65-40-3.22-50.8-1.84-78.72,6.92-78.72,6.92V485s-.7-52.28,54.72-63.84l-.33-61.46a46.32,46.32,0,0,0,24.33,6.68,45.57,45.57,0,0,0,12.93-2h0V411s.69,4.08,4.16,4.15,3.54-4.15,3.54-4.15v-49.7c1.18-.61,2.16-1.18,2.92-1.64Zm49.65,228.47s.34-135.5,0-139.16-1.16-7.77-6.7-7.77-6.16,7.77-6.16,7.77c4.32,21.23,5.89,116.85,6.39,135.46a46.42,46.42,0,0,1-.18,5c-.16,1.94.11,4.5,3,3.32C385.37,652.82,385.05,649.85,385.05,649.85Zm-6-156.66a12.8,12.8,0,0,0,2.34-7.78c-.51-53.11-38.8-61.81-46-46.31a5.76,5.76,0,0,0,2.25,8.49c19.61,9.59,26.31,36.27,32.73,44.63C374.24,497.3,377.19,495.68,379.05,493.19Z" transform="translate(-165.65 -38.44)"/><path class="cls-2" d="M388.61,751a10,10,0,0,1-6.05,5.73,218.78,218.78,0,0,1-142.75,0,10,10,0,0,1-6.68-9.43s10.49,5.82,20.53,6.86,59.38,10.85,118.53,0C372.19,754.14,380.63,753,388.61,751Z" transform="translate(-165.65 -38.44)"/><path class="cls-3" d="M385.05,510.69c.34,3.66,0,139.16,0,139.16s.32,3-3.68,4.62c-2.86,1.18-3.13-1.38-3-3.32a46.42,46.42,0,0,0,.18-5c-.5-18.61-2.07-114.23-6.39-135.46,0,0,.62-7.77,6.16-7.77S384.7,507,385.05,510.69Z" transform="translate(-165.65 -38.44)"/><path class="cls-3" d="M381.39,485.41a12.8,12.8,0,0,1-2.34,7.78c-1.86,2.49-4.81,4.11-8.7-1-6.42-8.36-13.12-35-32.73-44.63a5.76,5.76,0,0,1-2.25-8.49C342.59,423.6,380.88,432.3,381.39,485.41Z" transform="translate(-165.65 -38.44)"/><path class="cls-4" d="M373.45,747.14l-.87.54a23.41,23.41,0,0,1-18.94,2.3s-.64-2.3-1.77-6.4h0c-6.07-21.93-26.49-95.19-40.62-140.91l-.26-.83s0,0,0-.05a.74.74,0,0,0,0-.14c-.15-.5-.31-1-.47-1.51.32.08,7.72,1.93,11.79,0s6.81-2.27,8.83-6.34c26.46,79.22,50.28,141.87,50.28,141.87S382.21,741.52,373.45,747.14Z" transform="translate(-165.65 -38.44)"/><path class="cls-2" d="M388.61,751c-8,2-16.42,3.13-16.42,3.13-59.15,10.85-108.48,1-118.53,0s-20.53-6.86-20.53-6.86,27.92-8.76,78.72-6.92c15.69.57,29,1.8,40,3.22h0c1.13,4.1,1.77,6.4,1.77,6.4a23.41,23.41,0,0,0,18.94-2.3l.87-.54C383.49,749.19,388.61,750.91,388.61,751Z" transform="translate(-165.65 -38.44)"/><path class="cls-1" d="M338.25,329.7s1.15,3.74,0,4.72a8.77,8.77,0,0,1-2.85,1.48v-5.46C338.09,329.59,338.25,329.7,338.25,329.7Z" transform="translate(-165.65 -38.44)"/><path class="cls-5" d="M336.76,320.35a1.25,1.25,0,0,1,.31,1.07l-1.53,8.3a1.24,1.24,0,0,1-.4.7,1.12,1.12,0,0,1-.42.25A75.51,75.51,0,0,1,289,331l-.18,0c-.3-.07-.95-.22-1.66-.41l-1.41-9.08a1.2,1.2,0,0,1,.32-1.07h0l.87-.38h0l.27,0c21.78,4.71,42.36,1.22,48.42,0a1.06,1.06,0,0,1,.25,0l.89.39Z" transform="translate(-165.65 -38.44)"/><path class="cls-5" d="M335.86,320a1.06,1.06,0,0,0-.25,0c-6.06,1.24-26.64,4.73-48.42,0l-.27,0c5.24-2.28,13.59-5.86,24.93-5.77C322.71,314.28,330.71,317.72,335.86,320Z" transform="translate(-165.65 -38.44)"/><path class="cls-2" d="M335.4,335.9v23.71c-.76.46-1.74,1-2.92,1.64V343.83a4,4,0,0,0-3.85-4,3.12,3.12,0,0,0-.93.05l-.41-2.24C329.79,337.2,332.51,336.63,335.4,335.9Z" transform="translate(-165.65 -38.44)"/><path class="cls-2" d="M335.4,330.44v5.46c-2.89.73-5.61,1.3-8.11,1.74a86.36,86.36,0,0,1-15.89,1.5c-14.67.07-21.3-2.76-24-3.24l0-3.77a1.23,1.23,0,0,1,1.41-1.22l.18,0a75.51,75.51,0,0,0,45.76-.28,1.12,1.12,0,0,0,.42-.25Z" transform="translate(-165.65 -38.44)"/><path class="cls-3" d="M332.48,361.25V411s-.08,4.23-3.54,4.15-4.16-4.15-4.16-4.15V364.38a31.16,31.16,0,0,0,7.62-3.09Z" transform="translate(-165.65 -38.44)"/><path class="cls-6" d="M332.48,343.83v17.42l-.08,0c-.87.45-1.86.92-2.94,1.38l-.71.29-1.22.47-.29.11-1,.37-1.09.36-.12,0-.2.06h0V344.91s0-4.47,2.92-5a3.12,3.12,0,0,1,.93-.05A4,4,0,0,1,332.48,343.83Z" transform="translate(-165.65 -38.44)"/><path class="cls-4" d="M331.07,593.8c-2,4.07-4.67,4.37-8.83,6.34s-11.47.08-11.79,0c-.64-2-1.3-4-2-6.11-18.18-54.19-55.7-130.82-55.7-130.82,9.24,4.15,24.24-4.85,24.24-4.85s9.48-5.86,9.21-11.31C299.22,495.48,315.6,547.47,331.07,593.8Z" transform="translate(-165.65 -38.44)"/><path class="cls-2" d="M327.29,337.64l.41,2.24c-2.92.56-2.92,5-2.92,5v19.46a45.57,45.57,0,0,1-12.93,2,46.32,46.32,0,0,1-24.33-6.68l-.13-23.8c2.71.48,9.34,3.31,24,3.24A86.36,86.36,0,0,0,327.29,337.64Z" transform="translate(-165.65 -38.44)"/><path class="cls-1" d="M309.22,602.43a1.94,1.94,0,0,1,0,.24c-1,7.74-18,25.28-16.86,14.32.8-7.59,9.14-12.74,14.22-15.19l.77-.37A1.64,1.64,0,0,0,309.22,602.43Z" transform="translate(-165.65 -38.44)"/><path class="cls-1" d="M307.25,598.29a12.26,12.26,0,0,0-.15,1.31c-3,1.32-9.22,1.45-9.22,1.45-3.35.12-10.16-1.84-7.62-4.38C292.2,594.73,302.78,594.74,307.25,598.29Z" transform="translate(-165.65 -38.44)"/><path class="cls-1" d="M287.37,332.13l0,3.77h0c-2.69-.46-3.46-1.84-3.46-1.84s-.15-4.85.93-4.31a13.5,13.5,0,0,0,2.28.75Z" transform="translate(-165.65 -38.44)"/><path class="cls-4" d="M270.26,458.21l-1.05-2s5.7-2.08-.8-2.51-11.36,5.21-7.51,6.36C262.85,460.64,266.51,460,270.26,458.21Zm-15.72-2.82c5-4,13-7.88,13-7.88s15.1-8.2,18.17-2.31c.16.62.33,1.23.5,1.85.27,5.45-9.21,11.31-9.21,11.31s-15,9-24.24,4.85c-3.91-1.76-1.87-4.84,1.79-7.81Z" transform="translate(-165.65 -38.44)"/><path class="cls-4" d="M269.21,456.2l1.05,2c-3.75,1.79-7.41,2.43-9.36,1.84-3.85-1.15,1-6.8,7.51-6.36S269.21,456.2,269.21,456.2Z" transform="translate(-165.65 -38.44)"/><path class="cls-7" d="M287.85,421.16C232.43,432.72,233.13,485,233.13,485V747.28a10,10,0,0,0,6.68,9.43,218.78,218.78,0,0,0,142.75,0,10,10,0,0,0,6.05-5.73,9.92,9.92,0,0,0,.73-3.73V485s0-51.63-53.94-63.62" transform="translate(-165.65 -38.44)"/><polyline class="cls-7" points="169.75 383.77 169.75 382.93 169.75 321.16 169.75 297.45 169.75 291.99"/><path class="cls-7" d="M286,320.35a1.2,1.2,0,0,0-.32,1.07l1.41,9.08.25,1.63" transform="translate(-165.65 -38.44)"/><path class="cls-7" d="M286.91,320a1.21,1.21,0,0,0-.87.38" transform="translate(-165.65 -38.44)"/><path class="cls-7" d="M336.75,320.35a1.21,1.21,0,0,0-.89-.39,1.06,1.06,0,0,0-.25,0c-6.06,1.24-26.64,4.73-48.42,0l-.27,0" transform="translate(-165.65 -38.44)"/><path class="cls-7" d="M289,331a75.51,75.51,0,0,0,45.76-.28,1.12,1.12,0,0,0,.42-.25,1.24,1.24,0,0,0,.4-.7l1.53-8.3a1.25,1.25,0,0,0-.31-1.07" transform="translate(-165.65 -38.44)"/><path class="cls-7" d="M287.85,421.16l-.33-61.46-.13-23.8,0-3.77a1.23,1.23,0,0,1,1.41-1.22" transform="translate(-165.65 -38.44)"/><path class="cls-7" d="M286,320.35h0l.87-.38h0c5.24-2.28,13.59-5.86,24.93-5.77,10.86.08,18.86,3.52,24,5.76l.89.39h0" transform="translate(-165.65 -38.44)"/><path class="cls-7" d="M332.48,361.25c1.18-.61,2.16-1.18,2.92-1.64" transform="translate(-165.65 -38.44)"/><path class="cls-7" d="M329.46,362.67c1.08-.46,2.07-.93,2.94-1.38" transform="translate(-165.65 -38.44)"/><path class="cls-7" d="M327.53,363.43c.42-.14.83-.3,1.22-.47" transform="translate(-165.65 -38.44)"/><path class="cls-7" d="M326.2,363.91a10.6,10.6,0,0,0,1-.37" transform="translate(-165.65 -38.44)"/><path class="cls-7" d="M325,364.31l.12,0" transform="translate(-165.65 -38.44)"/><path class="cls-7" d="M287.37,359.61l.15.09a46.32,46.32,0,0,0,24.33,6.68,45.57,45.57,0,0,0,12.93-2h0" transform="translate(-165.65 -38.44)"/><path class="cls-7" d="M254.54,455.39c5-4,13-7.88,13-7.88s15.1-8.2,18.17-2.31a4.49,4.49,0,0,1,.5,1.85c.27,5.45-9.21,11.31-9.21,11.31s-15,9-24.24,4.85c-3.91-1.76-1.87-4.84,1.79-7.81" transform="translate(-165.65 -38.44)"/><path class="cls-7" d="M351.87,743.58c1.13,4.1,1.77,6.4,1.77,6.4a23.41,23.41,0,0,0,18.94-2.3l.87-.54c8.76-5.62,7.9-11.47,7.9-11.47S357.53,673,331.07,593.8c-15.47-46.33-31.85-98.32-44.88-146.75-.17-.62-.34-1.23-.5-1.85" transform="translate(-165.65 -38.44)"/><path class="cls-7" d="M252.74,463.21s37.52,76.63,55.7,130.82c.71,2.07,1.37,4.11,2,6.11.16.51.32,1,.47,1.51a.74.74,0,0,1,0,.14s0,0,0,.05l.26.83c14.13,45.72,34.55,119,40.62,140.91" transform="translate(-165.65 -38.44)"/><path class="cls-7" d="M254.53,455.4h0c.71-.31,30.08-13.4,25.45-5.65a22.77,22.77,0,0,1-9.73,8.47c-3.75,1.79-7.41,2.43-9.36,1.84-3.85-1.15,1-6.8,7.51-6.36s.8,2.51.8,2.51" transform="translate(-165.65 -38.44)"/><path class="cls-8" d="M331.07,593.8c-2,4.07-4.67,4.37-8.83,6.34s-11.47.08-11.79,0h0l-.05,0c-.15.05-.63.23-1.36.53l-1.7.74-.77.37c-5.08,2.45-13.42,7.6-14.22,15.19-1.16,11,15.82-6.58,16.86-14.32a1.94,1.94,0,0,0,0-.24,4.14,4.14,0,0,0-.19-1.74,4.61,4.61,0,0,0-1-1.65,5.81,5.81,0,0,0-.81-.75c-4.47-3.55-15.05-3.56-17-1.62-2.54,2.54,4.27,4.5,7.62,4.38,0,0,6.26-.13,9.22-1.45a4.5,4.5,0,0,0,1-.56,1.47,1.47,0,0,0,.56-.93c.18-1.78,1.13.35,1.77,2,.24.63.43,1.21.53,1.49l0,.14,0,.05a5.18,5.18,0,0,1-1.76.59,1.64,1.64,0,0,1-1.89-1,4.23,4.23,0,0,1-.23-1.83,12.26,12.26,0,0,1,.15-1.31,26.3,26.3,0,0,1,1.19-4.26" transform="translate(-165.65 -38.44)"/><path class="cls-8" d="M352.24,743.63l-.37,0h0c-11-1.42-24.32-2.65-40-3.22-50.8-1.84-78.72,6.92-78.72,6.92s10.49,5.82,20.53,6.86,59.38,10.85,118.53,0c0,0,8.44-1.17,16.42-3.13,0-.1-5.12-1.82-15.16-3.87l-.39-.08" transform="translate(-165.65 -38.44)"/><path class="cls-8" d="M335.37,439.1c7.22-15.5,45.51-6.8,46,46.31a12.8,12.8,0,0,1-2.34,7.78c-1.86,2.49-4.81,4.11-8.7-1-6.42-8.36-13.12-35-32.73-44.63A5.76,5.76,0,0,1,335.37,439.1Z" transform="translate(-165.65 -38.44)"/><path class="cls-8" d="M372.19,510.69s.62-7.77,6.16-7.77,6.35,4.12,6.7,7.77,0,139.16,0,139.16.32,3-3.68,4.62c-2.86,1.18-3.13-1.38-3-3.32a46.42,46.42,0,0,0,.18-5C378.08,627.54,376.51,531.92,372.19,510.69Z" transform="translate(-165.65 -38.44)"/><path class="cls-8" d="M332.4,361.29a31.16,31.16,0,0,1-7.62,3.09V411s.69,4.08,4.16,4.15,3.54-4.15,3.54-4.15v-49.7" transform="translate(-165.65 -38.44)"/><path class="cls-8" d="M332.48,361.25V343.83a4,4,0,0,0-3.85-4,3.12,3.12,0,0,0-.93.05c-2.92.56-2.92,5-2.92,5v19.46h0l.2-.06.12,0,1.09-.36,1-.37.29-.11,1.22-.47.71-.29a28.63,28.63,0,0,0,2.94-1.38Z" transform="translate(-165.65 -38.44)"/><path class="cls-8" d="M289,331l-.18,0c-.3-.07-.95-.22-1.66-.41a13.5,13.5,0,0,1-2.28-.75c-1.08-.54-.93,4.31-.93,4.31s.77,1.38,3.46,1.84h0c2.71.48,9.34,3.31,24,3.24a86.36,86.36,0,0,0,15.89-1.5c2.5-.44,5.22-1,8.11-1.74a8.77,8.77,0,0,0,2.85-1.48c1.15-1,0-4.72,0-4.72s-.16-.11-2.85.74" transform="translate(-165.65 -38.44)"/></g><g id="Layer_4" data-name="Layer 4"><path class="cls-9" d="M311.4,39c-60.6,10.17-77.47,117.74-77.47,117.74-33.88-26.25-67.77,0-67.77,0S166.94,38.11,311.4,39Z" transform="translate(-165.65 -38.44)"/><path class="cls-9" d="M311.4,39c144.46.85,144.46,117.74,144.46,117.74-39-24.56-65.22,0-65.22,0S371.93,49.12,311.4,39Z" transform="translate(-165.65 -38.44)"/><path class="cls-7" d="M455.86,156.69c-39-24.56-65.22,0-65.22,0a266.26,266.26,0,0,0-32.78-11.32c-80.65-22-123.93,11.32-123.93,11.32-33.88-26.25-67.77,0-67.77,0S166.94,38.11,311.4,39,455.86,156.69,455.86,156.69" transform="translate(-165.65 -38.44)"/><path class="cls-7" d="M166.16,156.69l119.53,195.4-51.76-195.4S250.8,49.12,311.4,39c60.53,10.17,79.24,117.74,79.24,117.74l-53.88,195.4,119.1-195.4" transform="translate(-165.65 -38.44)"/><line class="cls-7" x1="128.03" y1="278.83" x2="97.54" y2="105.04"/><line class="cls-7" x1="162.98" y1="278.65" x2="192.21" y2="106.93"/></g></svg>